<?xml version="1.0" standalone="no"?><!DOCTYPE svg PUBLIC "-//W3C//DTD SVG 1.1//EN" "http://www.w3.org/Graphics/SVG/1.1/DTD/svg11.dtd"><svg t="1661741099546" class="icon" viewBox="0 0 1024 1024" version="1.1" xmlns="http://www.w3.org/2000/svg" p-id="1919" width="32" height="32" xmlns:xlink="http://www.w3.org/1999/xlink"><path d="M511.6 63.6c-246.9 0-448 201.2-448 448 0 247.3 201.2 448 448 448s448-200.7 448-448c0-246.9-200.7-448-448-448z m259.9 318.5L474.6 699.3c-7 7.3-16.5 12.1-27.4 12.1-10.5 0-20.5-4.7-27.4-12.1L252 520c-7-7.3-11.5-17.8-11.5-29.4 0-23.1 17.5-41.4 38.9-41.4 10.5 0 20.5 4.7 27.4 12.1l140.7 149.9 270-287.8c7-7.3 16.5-12.1 27.4-12.1 21.5 0 38.9 18.3 38.9 41.4-0.8 11.6-5.3 22.1-12.3 29.4z m0 0" p-id="1920" fill="#1296db"></path></svg>