<?xml version="1.0" standalone="no"?><!DOCTYPE svg PUBLIC "-//W3C//DTD SVG 1.1//EN" "http://www.w3.org/Graphics/SVG/1.1/DTD/svg11.dtd"><svg t="1661741124809" class="icon" viewBox="0 0 1024 1024" version="1.1" xmlns="http://www.w3.org/2000/svg" p-id="2185" xmlns:xlink="http://www.w3.org/1999/xlink" width="32" height="32"><path d="M508.6 452L355.9 299.3c-15.6-15.5-40.9-15.4-56.4 0.1-15.6 15.6-15.6 40.8-0.1 56.4L452 508.6 299.3 661.3c-15.2 15.7-14.9 40.6 0.5 56.1 15.4 15.4 40.4 15.6 56.1 0.5l152.7-152.7 152.7 152.7c15.6 15.5 40.9 15.5 56.4-0.1 15.6-15.6 15.6-40.8 0.1-56.4L565.2 508.6l152.7-152.7c15.6-15.6 15.6-41 0-56.6-15.6-15.6-41-15.6-56.6 0L508.6 452z m3 507.6c-247.4 0-448-200.6-448-448s200.6-448 448-448 448 200.6 448 448-200.6 448-448 448z m0 0" p-id="2186" fill="#d81e06"></path></svg>