<?xml version="1.0" standalone="no"?><!DOCTYPE svg PUBLIC "-//W3C//DTD SVG 1.1//EN" "http://www.w3.org/Graphics/SVG/1.1/DTD/svg11.dtd"><svg t="1660716053632" class="icon" viewBox="0 0 1024 1024" version="1.1" xmlns="http://www.w3.org/2000/svg" p-id="7261" xmlns:xlink="http://www.w3.org/1999/xlink" width="48" height="48"><defs><style type="text/css">@font-face { font-family: feedback-iconfont; src: url("//at.alicdn.com/t/font_1031158_u69w8yhxdu.woff2?t=1630033759944") format("woff2"), url("//at.alicdn.com/t/font_1031158_u69w8yhxdu.woff?t=1630033759944") format("woff"), url("//at.alicdn.com/t/font_1031158_u69w8yhxdu.ttf?t=1630033759944") format("truetype"); }
</style></defs><path d="M500.333867 599.245603a299.60743 299.60743 0 1 1 211.861704-87.758147 297.644827 297.644827 0 0 1-211.861704 87.758147z m0-555.739486c-141.232856 0-256.132056 114.899201-256.132057 256.132056s114.899201 256.132056 256.132057 256.132056 256.132056-114.899201 256.132056-256.132056S641.566722 43.506117 500.333867 43.506117z" p-id="7262" fill="#e6e6e6"></path><path d="M724.902802 1024H21.260096l0.596234-22.358763a560.211239 560.211239 0 0 1 23.215849-143.443889c24.84307-83.050385 67.262613-154.586006 126.053739-212.619419 53.524395-52.828789 117.930055-92.080841 191.453123-116.687902a21.737687 21.737687 0 1 1 13.800326 41.227076c-67.200506 22.470557-125.97921 58.281843-174.795844 106.40287-105.458834 104.092465-129.966523 234.891231-135.171147 304.004654h658.490426a21.737687 21.737687 0 1 1 0 43.475373zM908.965111 650.310534H714.108488a21.737687 21.737687 0 0 1 0-43.475373h194.856623a21.737687 21.737687 0 0 1 0 43.475373zM914.256685 785.904013H714.108488a21.737687 21.737687 0 0 1 0-43.475374h200.148197a21.737687 21.737687 0 0 1 0 43.475374zM980.972751 921.547177H714.108488a21.737687 21.737687 0 0 1 0-43.475373h266.864263a21.737687 21.737687 0 0 1 0 43.475373z" p-id="7263" fill="#e6e6e6"></path></svg>